<svg xmlns="http://www.w3.org/2000/svg" viewBox="0 0 32 32">
  <rect width="32" height="32" rx="7" fill="#090a0b"/>
  <rect x="1" y="1" width="30" height="30" rx="6" fill="#101214" stroke="#262b2d" stroke-width="2"/>
  <path fill-rule="evenodd" d="M10 9.3 h 6.5 c 2.5 0 4.5 1.5 4.5 3.35 c 0 1.8 -1.2 3.35 -2.8 3.35 c 2.0 0 3.3 1.5 3.3 3.35 c 0 1.85 -2.0 3.35 -5.0 3.35 H 10 Z m 3 2 v 2.7 h 3 c 1.0 0 1.8 -0.6 1.8 -1.35 s -0.8 -1.35 -1.8 -1.35 Z m 0 6.7 v 2.7 h 3.5 c 1.0 0 1.8 -0.6 1.8 -1.35 c 0 -0.75 -0.8 -1.35 -1.8 -1.35 Z" fill="#f1f0ea"/>
  <path d="M6.8 24.4h18.4" stroke="#262b2d" stroke-width="1.4" stroke-linecap="round"/>
  <path d="M8.2 24.2l3.4-2.9 3 1.6 4.1-4.4 4.8 2.2" fill="none" stroke="#c8d5c0" stroke-width="1.7" stroke-linecap="round" stroke-linejoin="round"/>
</svg>
