<svg xmlns="http://www.w3.org/2000/svg" viewBox="0 0 32 32">
  <rect width="32" height="32" rx="7" fill="#090a0b"/>
  <rect x="1" y="1" width="30" height="30" rx="6" fill="#101214" stroke="#262b2d" stroke-width="2"/>
  <path d="M20.9 11.2c-1.1-1.2-2.7-1.9-4.7-1.9-4 0-6.7 2.9-6.7 6.7s2.7 6.7 6.7 6.7c1.9 0 3.7-.6 5-1.8v-4.7h-5.1v2.5h2.4v.8c-.6.3-1.3.5-2.1.5-2.2 0-3.7-1.6-3.7-4s1.5-4 3.7-4c1.1 0 2 .4 2.7 1.2l1.8-2z" fill="#f1f0ea"/>
  <path d="M6.8 24.4h18.4" stroke="#262b2d" stroke-width="1.4" stroke-linecap="round"/>
  <path d="M8.2 24.2l3.4-2.9 3 1.6 4.1-4.4 4.8 2.2" fill="none" stroke="#c8d5c0" stroke-width="1.7" stroke-linecap="round" stroke-linejoin="round"/>
</svg>
